<svg xmlns="http://www.w3.org/2000/svg" viewBox="0 0 170.748 56.709">
  <defs>
    <style>
      .cls-1, .cls-3, .cls-4, .cls-5 {
        fill: #fff;
      }

      .cls-1 {
        font-size: 34px;
      }

      .cls-1, .cls-4, .cls-5 {
        font-family: Ikaros-Regular, Ikaros Sans;
      }

      .cls-2 {
        font-family: SegoeUI, Segoe UI;
      }

      .cls-4 {
        font-size: 11px;
      }

      .cls-4, .cls-5 {
        letter-spacing: 0.2em;
      }

      .cls-5 {
        font-size: 8px;
      }
    </style>
  </defs>
  <g id="Group_39" data-name="Group 39" transform="translate(-19.252)">
    <text id="OASIS_18" data-name="OASIS&apos;18" class="cls-1" transform="translate(62 37)"><tspan x="0" y="0">OASIS</tspan><tspan class="cls-2" y="0">&apos;</tspan><tspan y="0">18</tspan></text>
    <g id="Group_25" data-name="Group 25" transform="translate(19.252 10.225)">
      <path id="Path_12" data-name="Path 12" class="cls-3" d="M5.686,119.72a1.125,1.125,0,0,1,.437.126,4.5,4.5,0,0,0,3.48-.15,4.343,4.343,0,0,0,2.113-2.43,6.011,6.011,0,0,0,.383-2.025,7.826,7.826,0,0,0-.334-2.45,13.874,13.874,0,0,0-.747-1.909,7.86,7.86,0,0,0-.939-1.488,8.706,8.706,0,0,0-.663-.8,6.225,6.225,0,0,0-1.533-1.184,4.307,4.307,0,0,0-2.511-.469,4.2,4.2,0,0,0-3.229,2.343,8.6,8.6,0,0,0-.845,1.889c-.088.3-.157.6-.231.908-.01.043.01.111-.054.116s-.079-.058-.1-.111A8.567,8.567,0,0,1,.2,109.4a5.376,5.376,0,0,1,.767-3.585,4.649,4.649,0,0,1,1.774-1.585,9.325,9.325,0,0,1,2.158-.826c.467-.111.953-.14,1.411-.295a8.976,8.976,0,0,0,1.976-.87,12.237,12.237,0,0,0,1.066-.623,18.7,18.7,0,0,0,1.927-1.7,22.217,22.217,0,0,0,1.666-2.044,18.74,18.74,0,0,0,1.16-1.86,22.868,22.868,0,0,0,1.75-3.89,22.09,22.09,0,0,0,.939-3.537,6.114,6.114,0,0,0,.133-1.962c-.01-.058-.025-.14.064-.159a.077.077,0,0,1,.088.063c.138.493.452.908.609,1.392a4.158,4.158,0,0,1,.108,2,24.5,24.5,0,0,1-1.037,4.006c-.423,1.227-.826,2.464-1.307,3.677-.315.783-.634,1.565-.909,2.363a15.912,15.912,0,0,0-.619,2.276,18.334,18.334,0,0,0-.285,2.648,10.648,10.648,0,0,0,.7,4.431,11.423,11.423,0,0,0,1.922,3.17,14.559,14.559,0,0,0,1.612,1.677c.565.469,1.121.957,1.7,1.416.742.589,1.519,1.131,2.241,1.744.462.391.973.725,1.425,1.135.58.527,1.165,1.049,1.71,1.614a9.442,9.442,0,0,1,1.3,1.706,6.483,6.483,0,0,1,.988,2.72,1.957,1.957,0,0,1,.054.478c-.01.063,0,.135-.064.174a.17.17,0,0,1-.2-.053c-.147-.126-.295-.256-.447-.377a29.91,29.91,0,0,0-2.531-1.88,17.564,17.564,0,0,0-1.558-.952,18.442,18.442,0,0,0-2.644-1.126,9.022,9.022,0,0,0-3.367-.329,9.723,9.723,0,0,0-2.944.763,10.475,10.475,0,0,1-2.88.812,4.68,4.68,0,0,1-2.674-.536,10.368,10.368,0,0,1-2.158-1.566A.337.337,0,0,1,5.686,119.72Z" transform="translate(-0.16 -82.288)"/>
      <path id="Path_13" data-name="Path 13" class="cls-3" d="M322.083,0a8.547,8.547,0,0,1,2.03,1.044,8.639,8.639,0,0,1,2.148,2.02,5.619,5.619,0,0,1,1.1,2.831,6.617,6.617,0,0,1-.29,2.677,9.492,9.492,0,0,1-1.13,2.368,16.094,16.094,0,0,1-1.45,1.807,15.589,15.589,0,0,1-2,1.764,15.253,15.253,0,0,1-2.634,1.72c-.875.464-1.764.9-2.6,1.416a6.406,6.406,0,0,0-1.091.831,13.041,13.041,0,0,0-.949.923,8.969,8.969,0,0,0-1.587,2.638,10.061,10.061,0,0,0-.55,4.426,13.49,13.49,0,0,0,.8,3.745c.162.445.359.879.541,1.314.044.1.138.222.039.3s-.182-.048-.275-.092a5.755,5.755,0,0,1-1.671-1.266,12.875,12.875,0,0,1-1.209-1.508,14.082,14.082,0,0,1-1.243-2.435,10.736,10.736,0,0,1-.575-1.749c-.211-.807-.339-1.624-.472-2.44a3.652,3.652,0,0,1-.069-.836c.02-.329-.059-.662-.034-.981.029-.425,0-.855.059-1.276.064-.517.138-1.039.246-1.546.069-.333.2-.662.29-.991a5.867,5.867,0,0,1,.565-1.295,6.585,6.585,0,0,1,1.494-1.942,9.143,9.143,0,0,1,.939-.73,7.723,7.723,0,0,1,1.877-.792c.58-.179,1.165-.348,1.75-.527a16.928,16.928,0,0,0,3.779-1.71,12.066,12.066,0,0,0,2.438-1.894,6.3,6.3,0,0,0,1.5-2.493,4.287,4.287,0,0,0-.256-3.146A6.292,6.292,0,0,0,322.241.222c-.054-.053-.1-.106-.148-.164C322.078.048,322.083.029,322.083,0Z" transform="translate(-293.729)"/>
      <path id="Path_14" data-name="Path 14" class="cls-3" d="M486.4,147.934a6.909,6.909,0,0,1,.521-2.247,4.255,4.255,0,0,1,1.376-1.493,11.551,11.551,0,0,1,2.039-1.116,5.637,5.637,0,0,0,1.818-1.3,11.674,11.674,0,0,0,2.231-3.324,18.7,18.7,0,0,0,1.125-3.247c.059-.222.1-.454.138-.681.025-.164.089-.217.236-.111.054.039.1.077.157.116.442.309.442.324.3.86-.216.831-.442,1.667-.624,2.508-.147.681-.334,1.353-.477,2.034-.369,1.71-.831,3.4-1.209,5.1-.354,1.59-.752,3.17-1.135,4.755-.142.59-.236,1.189-.374,1.778-.265,1.121-.555,2.237-.826,3.353-.187.768-.359,1.536-.531,2.3-.025.106-.039.232.138.246a5.575,5.575,0,0,1,1.45.377,6.228,6.228,0,0,1,1.784.986,4.285,4.285,0,0,1,1.666,2.527,1.527,1.527,0,0,1-.339,1.15,2.068,2.068,0,0,1-1.543.831,3.2,3.2,0,0,1-1.612-.208,3.148,3.148,0,0,1-1.362-1.02,6.466,6.466,0,0,1-1.288-3.025c-.093-.551-.216-1.1-.256-1.657a7.909,7.909,0,0,1,.216-1.662,23,23,0,0,1,.58-2.764c.182-.657.4-1.3.59-1.957a17.342,17.342,0,0,0,.55-2.112,1.312,1.312,0,0,0-.064-.4c-.123,0-.177.1-.251.155a3.63,3.63,0,0,1-1.637.5,4.858,4.858,0,0,0-2.536,1.077,7.972,7.972,0,0,0-1.828,2.667,5.637,5.637,0,0,0-.31.783c-.049.155-.093.116-.172.029a1.988,1.988,0,0,1-.452-1.193,3.633,3.633,0,0,1,.59-2.155,6.729,6.729,0,0,1,2.963-2.633,6.218,6.218,0,0,1,1.563-.507,3.925,3.925,0,0,0,1.563-.763,4.281,4.281,0,0,0,1.5-2.063,1.167,1.167,0,0,0,.034-.14c.039-.179-.039-.217-.2-.155s-.285.116-.427.184c-.821.4-1.656.778-2.512,1.1a7.484,7.484,0,0,0-1.769,1.044,5.845,5.845,0,0,0-1.017.942C486.648,147.582,486.53,147.761,486.4,147.934Z" transform="translate(-460.682 -127.868)"/>
      <path id="Path_15" data-name="Path 15" class="cls-3" d="M424.879,370.393c-.02.208-.2.314-.315.44a6.057,6.057,0,0,0-.742,1.092,7.713,7.713,0,0,0-.968,2.382,8.736,8.736,0,0,0-.157,2.653,9.236,9.236,0,0,0,.5,2.247,9.776,9.776,0,0,0,1.076,1.991.41.41,0,0,0,.1.1c.054.043.1.135.182.087.054-.034.025-.116.02-.179a4.964,4.964,0,0,1,1.494-4.117,5.848,5.848,0,0,1,2.187-1.367c.069-.024.138-.048.206-.068s.143-.034.226-.053a.331.331,0,0,1-.069.295,13.383,13.383,0,0,0-1.42,3.827,10.585,10.585,0,0,0-.27,2.189c-.015.449,0,.894,0,1.343a12.849,12.849,0,0,0,.437,2.962,18.3,18.3,0,0,0,2.025,4.837.108.108,0,0,1,.015.135c-.3-.179-.614-.343-.9-.531a32.12,32.12,0,0,1-2.629-1.865q-.914-.739-1.769-1.556a15.509,15.509,0,0,1-2.325-2.764,10.414,10.414,0,0,1-1.42-3.1,9.859,9.859,0,0,1-.2-3.039,8.92,8.92,0,0,1,1.081-3.537,12.22,12.22,0,0,1,1.9-2.735c.295-.314.57-.643.87-.947.236-.242.5-.454.752-.681A.089.089,0,0,1,424.879,370.393Z" transform="translate(-399.483 -352.486)"/>
      <path id="Path_16" data-name="Path 16" class="cls-3" d="M368.846,69.1a4.278,4.278,0,0,1,1.489.609,3.044,3.044,0,0,1,1.317,1.7,9.857,9.857,0,0,1,.241,1.131,6,6,0,0,1-.059.72c0,.179.064.193.2.106a3.97,3.97,0,0,1,1.248-.512,5.731,5.731,0,0,1,1.184-.126,20.115,20.115,0,0,0,2.094-.121,8.916,8.916,0,0,0,1.578-.377,3.263,3.263,0,0,0,.831-.314c.059.072.024.126-.02.174a8.052,8.052,0,0,1-1.6,1.329,10.64,10.64,0,0,1-2.526,1.1c-.639.184-1.293.28-1.936.449a13.748,13.748,0,0,0-2.148.652,4.556,4.556,0,0,0-1.686,1.126.581.581,0,0,1-.275.222c-.015-.208.113-.372.152-.551.138-.6.344-1.2.447-1.807a9.582,9.582,0,0,0,.226-1.87c0-.155.113-.271.1-.416a6.069,6.069,0,0,0-.693-2.817c-.049-.072-.084-.155-.172-.193C368.915,69.245,368.876,69.173,368.846,69.1Z" transform="translate(-350.66 -65.761)"/>
      <path id="Path_17" data-name="Path 17" class="cls-3" d="M90.363,274.042a2.647,2.647,0,0,1,2.9-2.6,2.691,2.691,0,0,1,2.516,2.74,2.747,2.747,0,0,1-2.752,2.595A2.673,2.673,0,0,1,90.363,274.042Z" transform="translate(-85.928 -258.314)"/>
      <path id="Path_18" data-name="Path 18" class="cls-3" d="M367.733,68.491c.029.073.069.145-.015.208-.03-.048-.054-.092-.084-.14s-.049-.077-.01-.1S367.694,68.481,367.733,68.491Z" transform="translate(-349.547 -65.152)"/>
    </g>
    <g id="Group_38" data-name="Group 38" transform="translate(61.611 40.011)">
      <text id="_27_Oct_-_31_Oct" data-name="27   Oct - 31   Oct" class="cls-4" transform="translate(0 13.698)"><tspan x="0" y="0" xml:space="preserve">27   Oct - 31   Oct</tspan></text>
      <text id="th" class="cls-5" transform="translate(18.87 8)"><tspan x="0" y="0">th</tspan></text>
      <text id="st" class="cls-5" transform="translate(90.87 8)"><tspan x="0" y="0">st</tspan></text>
    </g>
  </g>
</svg>
